<?xml version="1.0" standalone="no"?><!DOCTYPE svg PUBLIC "-//W3C//DTD SVG 1.1//EN" "http://www.w3.org/Graphics/SVG/1.1/DTD/svg11.dtd"><svg t="1535627256919" class="icon" style="" viewBox="0 0 1024 1024" version="1.1" xmlns="http://www.w3.org/2000/svg" p-id="1366" xmlns:xlink="http://www.w3.org/1999/xlink" width="16" height="16"><defs><style type="text/css"></style></defs><path d="M511.996414 0.12689c-282.285155 0-511.975441 229.640144-511.975441 511.930415 0 282.303574 229.690286 511.941672 511.975441 511.941672 282.286178 0 511.982604-229.639121 511.982604-511.941672C1023.979018 229.767034 794.282592 0.12689 511.996414 0.12689L511.996414 0.12689zM511.996414 941.02624c-236.533135 0-428.955632-192.439894-428.955632-428.962795S275.46328 83.123162 511.996414 83.123162c236.540298 0 428.962795 192.416358 428.962795 428.940282S748.536712 941.02624 511.996414 941.02624L511.996414 941.02624zM655.047458 231.262084l-91.330078 168.284751c-24.376177 45.590338-39.235606 75.92318-44.698015 90.940199l-1.571798 0C501.393939 453.957049 456.064544 367.574656 381.441986 231.262084l-85.909625 0 159.747307 274.381138L324.305685 505.643222l0 60.657498 153.526629 0 0 83.552951-153.526629 0 0 61.376882 153.526629 0 0 121.68134 76.17389 0L554.006204 711.224414l148.099013 0 0-61.374836L554.00518 649.849578l0-83.548858 148.099013 0 0-60.657498L575.007517 505.643222l161.296593-274.381138L655.047458 231.262084 655.047458 231.262084zM655.047458 231.262084" p-id="1367"></path></svg>